<svg width="96" height="96" xmlns="http://www.w3.org/2000/svg" xmlns:xlink="http://www.w3.org/1999/xlink" xml:space="preserve" overflow="hidden"><g transform="translate(-568 -312)"><path d="M629.9 374.4C637.7 366.9 638.1 354.5 630.7 346.5 638.6 350.6 645.1 356.9 648.9 361.1 644.9 365 638.1 370.8 629.9 374.4ZM590.6 353.8C593.9 351 597.4 348.6 601.2 346.6 593.9 354.6 594.3 366.9 602.1 374.4 593.9 370.8 587 365 583.1 361.1 585.4 358.5 587.9 356.1 590.6 353.8L590.6 353.8ZM616 376C607.2 376 600 368.8 600 360 600 351.2 607.2 344 616 344 624.8 344 632 351.2 632 360 632 368.8 624.8 376 616 376ZM654.9 358.3C649.1 351.5 633.9 336 616 336 598.1 336 582.9 351.5 577.1 358.3 575.6 360.1 575.7 362.6 577.3 364.3 583.2 370.5 598.3 384 616 384 633.7 384 648.8 370.5 654.8 364.3 656.3 362.7 656.4 360.1 654.9 358.3Z"/><path d="M626 360C626 365.523 621.523 370 616 370 610.477 370 606 365.523 606 360 606 354.477 610.477 350 616 350 621.523 350 626 354.477 626 360Z"/></g></svg>