<svg width="96" height="96" xmlns="http://www.w3.org/2000/svg" xmlns:xlink="http://www.w3.org/1999/xlink" xml:space="preserve" overflow="hidden"><g transform="translate(-298 -312)"><path d="M376 332 359 332 359 327C359 323.1 355.9 320 352 320L340 320C336.1 320 333 323.1 333 327L333 332 316 332C313.8 332 312 333.8 312 336L312 340 380 340 380 336C380 333.8 378.2 332 376 332ZM339 327C339 326.4 339.4 326 340 326L352 326C352.6 326 353 326.4 353 327L353 332 339 332 339 327Z"/><path d="M318 396C318 398.2 319.8 400 322 400L370 400C372.2 400 374 398.2 374 396L374 344 318 344 318 396ZM359 350 365 350 365 394 359 394 359 350ZM343 350 349 350 349 394 343 394 343 350ZM327 350 333 350 333 394 327 394 327 350Z"/></g></svg>